<svg width="20" height="27" viewBox="0 0 20 27" fill="none" xmlns="http://www.w3.org/2000/svg">
<path d="M6.66699 13.6L6.66699 8.13328C6.66699 6.29233 8.15938 4.79995 10.0003 4.79995V4.79995C11.8413 4.79995 13.3337 6.29233 13.3337 8.13328L13.3337 13.6" stroke="#292929" stroke-linecap="round"/>
<path d="M3.09672 14.0479C3.20885 12.2718 3.26491 11.3838 3.84212 10.8418C4.41932 10.2999 5.30914 10.2999 7.08877 10.2999H12.9112C14.6909 10.2999 15.5807 10.2999 16.1579 10.8418C16.7351 11.3838 16.7912 12.2718 16.9033 14.0479L17.3658 21.374C17.4287 22.3706 17.4602 22.8689 17.1639 23.1844C16.8677 23.5 16.3684 23.5 15.3698 23.5H4.63024C3.63163 23.5 3.13232 23.5 2.83608 23.1844C2.53984 22.8689 2.5713 22.3706 2.63422 21.374L3.09672 14.0479Z" stroke="#292929"/>
</svg>
