<svg width="18" height="15" viewBox="0 0 18 15" fill="none" xmlns="http://www.w3.org/2000/svg">
<path d="M2.70857 8.59021L8.50241 14.0329C8.64756 14.1693 8.72013 14.2374 8.79905 14.272C8.92694 14.328 9.07241 14.328 9.20029 14.272C9.27921 14.2374 9.35179 14.1693 9.49693 14.0329L15.2908 8.59022C16.9209 7.05887 17.1189 4.53887 15.7478 2.77176L15.4901 2.43949C13.8499 0.325525 10.5577 0.680053 9.40523 3.09475C9.24244 3.43584 8.75691 3.43584 8.59412 3.09475C7.44165 0.680053 4.14944 0.325526 2.50929 2.43949L2.2515 2.77177C0.880464 4.53888 1.07842 7.05886 2.70857 8.59021Z" stroke="#292929"/>
</svg>
