<svg width="24" height="24" viewBox="0 0 24 24" fill="none" xmlns="http://www.w3.org/2000/svg">
<g clip-path="url(#clip0_852_485)">
<mask id="mask0_852_485" style="mask-type:luminance" maskUnits="userSpaceOnUse" x="0" y="0" width="24" height="24">
<path d="M0 1.90735e-06H24V24H0V1.90735e-06Z" fill="white"/>
</mask>
<g mask="url(#mask0_852_485)">
<path d="M23.0616 12C23.0592 12.9865 23.0481 13.9731 23.0346 14.9596C23.0182 16.1498 22.9999 17.3405 22.7014 18.5103C22.3884 19.7371 21.771 20.795 20.8106 21.5783C19.7985 22.4036 18.5751 22.8375 17.2547 22.9178C15.5035 23.0243 13.7515 23.0664 11.9995 23.0622C10.2475 23.0664 8.49553 23.0243 6.74433 22.9178C5.42395 22.8375 4.20061 22.4036 3.18848 21.5783C2.22802 20.795 1.61067 19.7371 1.29764 18.5103C0.999141 17.3405 0.980767 16.1498 0.964501 14.9596C0.951001 13.9731 0.939797 12.9865 0.9375 12C0.939797 11.0135 0.951001 10.0269 0.964501 9.04041C0.980767 7.85021 0.999141 6.65949 1.29764 5.48968C1.61067 4.26296 2.22802 3.20499 3.18848 2.42176C4.20061 1.59638 5.42395 1.16255 6.74433 1.08226C8.49553 0.975758 10.2475 0.933664 11.9995 0.937789C13.7515 0.933664 15.5035 0.975758 17.2547 1.08226C18.5751 1.16255 19.7985 1.59638 20.8106 2.42176C21.771 3.20499 22.3884 4.26296 22.7014 5.48968C22.9999 6.65949 23.0182 7.85021 23.0346 9.04041C23.0481 10.0269 23.0592 11.0135 23.0616 12Z" stroke="#0068FF" stroke-width="1.4" stroke-miterlimit="10"/>
<path d="M16.875 12C16.875 14.7183 14.6714 16.9219 11.9531 16.9219C9.23484 16.9219 7.03125 14.7183 7.03125 12C7.03125 9.28172 9.23484 7.07812 11.9531 7.07812C14.6714 7.07812 16.875 9.28172 16.875 12Z" stroke="#0068FF" stroke-width="1.4" stroke-miterlimit="10"/>
<path d="M19.875 5.67188C19.875 6.4485 19.2454 7.07812 18.4688 7.07812C17.6921 7.07812 17.0625 6.4485 17.0625 5.67188C17.0625 4.89525 17.6921 4.26562 18.4688 4.26562C19.2454 4.26562 19.875 4.89525 19.875 5.67188Z" fill="#0068FF"/>
</g>
</g>
<defs>
<clipPath id="clip0_852_485">
<rect width="24" height="24" fill="white"/>
</clipPath>
</defs>
</svg>
