<svg width="131" height="17" viewBox="0 0 131 17" fill="none" xmlns="http://www.w3.org/2000/svg">
<path d="M96.5967 4.51941C92.8343 4.51941 90.1777 7.13747 90.1777 10.7013C90.1777 14.2652 92.8343 16.8832 96.5967 16.8832C99.3715 16.8832 101.541 15.4577 102.459 13.292H100.7C99.9278 14.649 98.4813 15.4097 96.5967 15.4097C93.9192 15.4097 92.0624 13.6758 91.8468 11.2222H102.967V10.7013C102.967 7.13747 100.366 4.51941 96.5967 4.51941ZM91.8955 9.79665C92.2571 7.487 94.1139 5.99292 96.6036 5.99292C99.0168 5.99292 100.901 7.41846 101.284 9.79665H91.8955Z" fill="#0068FF"/>
<path d="M110.783 5.99292C112.953 5.99292 114.622 7.13747 115.269 8.89198H116.91C116.208 6.27392 113.871 4.51941 110.783 4.51941C107.021 4.51941 104.364 7.13747 104.364 10.7013C104.364 14.2652 107.021 16.8832 110.783 16.8832C113.871 16.8832 116.215 15.1219 116.91 12.5107H115.269C114.615 14.272 112.953 15.4097 110.783 15.4097C107.939 15.4097 106.006 13.4153 106.006 10.7013C106.012 7.99416 107.939 5.99292 110.783 5.99292Z" fill="#0068FF"/>
<path d="M25.9538 10.9617C25.9538 13.8402 24.2638 15.4097 21.6837 15.4097C19.2219 15.4097 17.5667 13.9773 17.4276 11.3455V10.3038C17.4207 10.1804 17.4137 10.0502 17.4137 9.91997V9.85143V8.80969C17.3303 7.07574 16.753 5.74615 15.8072 4.82778L15.8003 4.82092V5.86266V8.86452V9.90626V10.9617C15.8003 11.1125 15.8072 11.2564 15.8142 11.4003C15.842 12.0377 15.9394 12.6271 16.0993 13.1548C16.1063 13.1686 16.1063 13.1823 16.1132 13.1891C16.1341 13.2576 16.1619 13.333 16.1828 13.4016C16.1897 13.4221 16.1967 13.4427 16.2036 13.4633C16.2245 13.5249 16.2523 13.5866 16.2732 13.6483C16.2871 13.6757 16.2941 13.7031 16.308 13.7305C16.3288 13.7854 16.3566 13.8402 16.3845 13.895C16.3984 13.9224 16.4123 13.9567 16.4262 13.9841C16.454 14.039 16.4749 14.0869 16.5027 14.1349C16.5166 14.1692 16.5375 14.1966 16.5514 14.224C16.5792 14.272 16.6001 14.3199 16.6279 14.3611C16.6487 14.3953 16.6696 14.4228 16.6835 14.457C16.7113 14.4981 16.7391 14.5461 16.767 14.5872C16.7878 14.6215 16.8087 14.6489 16.8365 14.6832C16.8643 14.7243 16.8921 14.7586 16.92 14.7997C16.9478 14.834 16.9686 14.8682 16.9965 14.8956C17.0243 14.9299 17.0521 14.9642 17.0799 15.0053C17.1077 15.0396 17.1355 15.0738 17.1634 15.1013C17.1912 15.1355 17.219 15.1629 17.2468 15.1972C17.2816 15.2315 17.3164 15.2657 17.3511 15.3C17.3789 15.3274 17.4068 15.3548 17.4276 15.3823C18.4569 16.3692 19.9312 16.8763 21.6837 16.8763C25.2096 16.8763 27.5741 14.8545 27.5741 10.9549V4.82092H25.9607V10.9617H25.9538Z" fill="#292929"/>
<path d="M41.6984 10.3106C41.6706 9.6732 41.5732 9.0838 41.4133 8.55608C41.4063 8.54237 41.4063 8.52866 41.3994 8.52181C41.3785 8.45327 41.3507 8.37788 41.3298 8.30935C41.3229 8.28878 41.3159 8.26823 41.309 8.24767C41.2881 8.18598 41.2603 8.1243 41.2394 8.06262C41.2255 8.03521 41.2186 8.00779 41.2046 7.98038C41.1838 7.92555 41.156 7.87072 41.1281 7.81589C41.1142 7.78847 41.1003 7.75421 41.0864 7.72679C41.0586 7.67882 41.0377 7.62399 41.0099 7.57601C40.996 7.54175 40.9751 7.51433 40.9612 7.48692C40.9334 7.43894 40.9126 7.39097 40.8847 7.34985C40.8639 7.31558 40.843 7.28817 40.8291 7.2539C40.8013 7.21278 40.7735 7.1648 40.7457 7.12368C40.7248 7.08941 40.7039 7.062 40.6761 7.02773C40.6483 6.98661 40.6205 6.95234 40.5927 6.91122C40.5648 6.87696 40.544 6.84954 40.5162 6.81527C40.4883 6.781 40.4605 6.74674 40.4327 6.70562C40.4049 6.67135 40.3771 6.63708 40.3492 6.60966C40.3214 6.5754 40.2936 6.54798 40.2658 6.51371C40.231 6.47945 40.1963 6.44518 40.1684 6.41091C40.1406 6.3835 40.1128 6.35608 40.085 6.32867C39.0557 5.34176 37.5814 4.83459 35.8289 4.83459C32.303 4.83459 29.9385 6.85639 29.9385 10.7561V16.89H31.5519V10.7561C31.5519 7.85701 33.2418 6.30811 35.8219 6.30811C38.2838 6.30811 39.9389 7.71994 40.078 10.3723V11.414C40.085 11.5374 40.0919 11.6676 40.0919 11.7978V11.8663V12.9081C40.1754 14.642 40.7526 15.9716 41.6984 16.89L41.7054 16.8968V15.8551V12.8533V11.8115V10.7629C41.7054 10.5984 41.7054 10.4545 41.6984 10.3106Z" fill="#292929"/>
<path d="M46.1358 5.03344V3.9917C46.0523 2.25775 45.4821 0.921306 44.5293 0.00292969V16.8832H46.1427V10.5643V9.52252V6.52066V5.47892C46.1358 5.35556 46.1288 5.22534 46.1288 5.09512V5.03344H46.1358Z" fill="#292929"/>
<path d="M50.2251 0.427856C49.5227 0.427856 48.9941 0.948741 48.9941 1.64097C48.9941 2.3332 49.5227 2.85408 50.2251 2.85408C50.9275 2.85408 51.4561 2.3332 51.4561 1.64097C51.4561 0.955595 50.9275 0.427856 50.2251 0.427856Z" fill="#292929"/>
<path d="M51.0383 10.2353V10.1667V9.125C50.9549 7.39105 50.3777 6.06146 49.4249 5.14308L49.418 5.13623V6.17797V9.17983V10.2216C49.418 10.2627 49.4249 10.3107 49.4249 10.3518V16.8832H51.0383V15.6907L51.0453 15.6976V14.6627V11.6608V10.6191C51.0453 10.578 51.0383 10.53 51.0383 10.4889C51.0383 10.3998 51.0383 10.3175 51.0383 10.2353Z" fill="#292929"/>
<path d="M67.256 4.82776C65.3018 4.82776 63.7093 5.73243 62.9582 7.46638C62.1862 5.73243 60.5937 4.82776 58.6604 4.82776C55.9064 4.82776 53.834 6.51373 53.834 10.009V16.8832H55.4474V10.0159C55.4474 7.52121 56.8452 6.30813 58.7786 6.30813C60.7119 6.30813 62.1584 7.56918 62.1584 10.0159V16.89H63.7719V10.0159C63.7719 7.56918 65.1975 6.30813 67.1239 6.30813C68.9599 6.30813 70.309 7.40469 70.4411 9.64581V10.3654V11.4072C70.4481 11.5305 70.4551 11.6608 70.4551 11.791V11.8595V12.9012C70.5385 14.6283 71.1088 15.9648 72.0615 16.8763C72.0685 16.8832 72.0685 16.8832 72.0754 16.89V15.8483V12.8464V11.8047V10.0159C72.0824 6.52059 70.01 4.82776 67.256 4.82776Z" fill="#292929"/>
<path d="M76.0625 2.80066C76.7132 2.6065 77.081 1.92927 76.8839 1.28803C76.6869 0.646787 75.9997 0.284359 75.3491 0.47852C74.6984 0.672681 74.3306 1.34991 74.5276 1.99115C74.7247 2.63239 75.4118 2.99482 76.0625 2.80066Z" fill="#292929"/>
<path d="M76.5255 10.1666V9.12488C76.4421 7.39093 75.8649 6.05448 74.9121 5.13611V6.17785V9.17971V10.2214V16.8831H76.5255V15.6906C76.5325 15.6974 76.5325 15.6974 76.5394 15.7043V14.6625V11.6607V10.619C76.5325 10.4956 76.5255 10.3654 76.5255 10.2352V10.1666Z" fill="#292929"/>
<path d="M87.0695 11.9898V12.2502C87.0695 14.416 85.8386 15.4097 84.0026 15.4097C82.1458 15.4097 80.9357 14.3885 80.9357 12.2502V11.2222C80.9427 11.2291 80.9426 11.2291 80.9496 11.2359V10.1942V7.19231V6.28764H87.9597V4.83469H80.9357V4.65649C80.8522 2.92254 80.275 1.5861 79.3223 0.667725V1.70947V4.71132V5.75306V12.2502C79.3223 15.3412 81.2278 16.8901 84.0026 16.8901C86.7565 16.8901 88.6342 15.3412 88.6342 12.2502V11.9898H87.0695Z" fill="#0068FF"/>
<path d="M125.36 4.82783C123.295 4.82783 121.709 5.72565 120.861 7.39791V6.52066V5.47892C120.854 5.35556 120.847 5.23219 120.847 5.10197V5.03344V3.9917C120.763 2.25775 120.186 0.921306 119.233 0.00292969V1.04467V4.04653V5.08827V16.8901H120.847V10.7562C120.847 10.6876 120.847 10.6259 120.854 10.5643L120.861 10.5711V10.3792C121.007 7.76115 122.676 6.3082 125.117 6.3082C127.697 6.3082 129.387 7.8571 129.387 10.7562V16.8901H131V10.7562C131.007 6.73312 128.545 4.82783 125.36 4.82783Z" fill="#0068FF"/>
<path d="M5.09095 9.85841C5.084 10.0092 5.07704 10.16 5.07704 10.3176V10.9961C5.07009 11.1263 5.06313 11.2565 5.06313 11.3936V11.4621V11.5718V12.5382C4.97968 14.3475 4.40246 15.7319 3.44971 16.6914C4.06865 16.4378 4.61805 16.0746 5.07704 15.6154C6.0298 14.6628 6.61397 13.2715 6.69047 11.4621C6.69742 11.3114 6.70438 11.1606 6.70438 11.003V9.9338V9.90639V9.86527V8.7824C6.78783 6.97307 7.36505 5.58179 8.3178 4.62915C7.69886 4.88273 7.15642 5.23912 6.70438 5.69831C5.75162 6.6578 5.1744 8.04908 5.09095 9.85841Z" fill="#0068FF"/>
<path d="M1.64821 5.70549C0.695445 6.65814 0.111271 8.04942 0.0347723 9.85877C0.0278178 10.0095 0.0208633 10.1603 0.0208633 10.318V10.9965C0.0139089 11.6407 0.00695445 12.2849 0 12.9292C0.326859 12.5865 0.806717 12.0108 1.16835 11.1747C1.30744 10.8457 1.62734 10.0301 1.65516 8.95409C1.65516 8.89241 1.65516 8.83073 1.65516 8.7759V8.76905C1.73861 6.97341 2.31583 5.58898 3.26859 4.64319C2.64965 4.89677 2.1072 5.25316 1.64821 5.70549Z" fill="#0068FF"/>
<path d="M10.6124 10.1461C10.4733 10.4751 10.1534 11.2906 10.1256 12.3666C10.1256 12.4283 10.1256 12.49 10.1256 12.5448V12.5585C10.0422 14.3542 9.46496 15.7386 8.51221 16.6844C9.12419 16.4308 9.67359 16.0744 10.1256 15.6152C11.0784 14.6626 11.6625 13.2713 11.739 11.462C11.746 11.3112 11.753 11.1604 11.753 11.0028V10.3243C11.7599 9.68007 11.7669 9.03583 11.7738 8.3916C11.447 8.73428 10.9671 9.30997 10.6124 10.1461Z" fill="#0068FF"/>
</svg>
