<svg width="16" height="16" viewBox="0 0 16 16" fill="none" xmlns="http://www.w3.org/2000/svg">
<g clip-path="url(#clip0_2_1302)">
<path d="M14.7796 1.21338L14.0796 0.606709C13.273 -0.199958 11.9663 -0.199958 11.1596 0.606709C11.1396 0.626709 9.9063 2.23338 9.9063 2.23338C9.1463 3.03338 9.1463 4.29338 9.9063 5.08671L10.6796 6.06004C9.7063 8.26671 8.19297 9.78671 6.05964 10.6934L5.0863 9.91338C4.29297 9.14671 3.0263 9.14671 2.23297 9.91338C2.23297 9.91338 0.626303 11.1467 0.606303 11.1667C-0.200364 11.9734 -0.200364 13.28 0.57297 14.0534L1.23964 14.82C2.0063 15.5867 3.03964 16.0067 4.15964 16.0067C9.25297 16.0067 15.9996 9.25338 15.9996 4.16671C15.9996 3.05338 15.5796 2.01338 14.7796 1.22004V1.21338ZM4.15964 14.6667C3.39964 14.6667 2.69964 14.3867 2.21964 13.9L1.55297 13.1334C1.27964 12.86 1.2663 12.4134 1.5263 12.1267C1.5263 12.1267 3.11964 10.9 3.13964 10.88C3.41297 10.6067 3.89297 10.6067 4.17297 10.88C4.19297 10.9 5.53297 11.9734 5.53297 11.9734C5.71964 12.12 5.9663 12.16 6.1863 12.0734C8.9463 11.02 10.9263 9.04671 12.0663 6.20004C12.153 5.98004 12.1196 5.72671 11.9663 5.53338C11.9663 5.53338 10.893 4.18671 10.8796 4.17338C10.593 3.88671 10.593 3.42671 10.8796 3.14004C10.8996 3.12004 12.1263 1.52671 12.1263 1.52671C12.413 1.26671 12.8596 1.27338 13.1663 1.58004L13.8663 2.18671C14.3796 2.70004 14.6663 3.40004 14.6663 4.16004C14.6663 8.80004 8.15297 14.6667 4.15964 14.6667Z" fill="white"/>
</g>
<defs>
<clipPath id="clip0_2_1302">
<rect width="16" height="16" fill="white"/>
</clipPath>
</defs>
</svg>
