<svg width="16" height="16" viewBox="0 0 16 16" fill="none" xmlns="http://www.w3.org/2000/svg">
<path d="M14.7801 1.21338L14.0801 0.606709C13.2735 -0.199958 11.9668 -0.199958 11.1601 0.606709C11.1401 0.626709 9.90679 2.23338 9.90679 2.23338C9.14679 3.03338 9.14679 4.29338 9.90679 5.08671L10.6801 6.06004C9.70679 8.26671 8.19346 9.78671 6.06013 10.6934L5.08679 9.91338C4.29346 9.14671 3.02679 9.14671 2.23346 9.91338C2.23346 9.91338 0.626791 11.1467 0.606791 11.1667C-0.199876 11.9734 -0.199875 13.28 0.573458 14.0534L1.24012 14.82C2.00679 15.5867 3.04012 16.0067 4.16012 16.0067C9.25346 16.0067 16.0001 9.25338 16.0001 4.16671C16.0001 3.05338 15.5801 2.01338 14.7801 1.22004V1.21338ZM4.16012 14.6667C3.40012 14.6667 2.70012 14.3867 2.22012 13.9L1.55346 13.1334C1.28012 12.86 1.26679 12.4134 1.52679 12.1267C1.52679 12.1267 3.12013 10.9 3.14013 10.88C3.41346 10.6067 3.89346 10.6067 4.17346 10.88C4.19346 10.9 5.53346 11.9734 5.53346 11.9734C5.72013 12.12 5.96679 12.16 6.18679 12.0734C8.94679 11.02 10.9268 9.04671 12.0668 6.20004C12.1535 5.98004 12.1201 5.72671 11.9668 5.53338C11.9668 5.53338 10.8935 4.18671 10.8801 4.17338C10.5935 3.88671 10.5935 3.42671 10.8801 3.14004C10.9001 3.12004 12.1268 1.52671 12.1268 1.52671C12.4135 1.26671 12.8601 1.27338 13.1668 1.58004L13.8668 2.18671C14.3801 2.70004 14.6668 3.40004 14.6668 4.16004C14.6668 8.80004 8.15346 14.6667 4.16012 14.6667Z" fill="#0068FF"/>
</svg>
